<?xml version="1.0" standalone="no"?><!DOCTYPE svg PUBLIC "-//W3C//DTD SVG 1.1//EN" "http://www.w3.org/Graphics/SVG/1.1/DTD/svg11.dtd"><svg t="1719737655805" class="icon" viewBox="0 0 1024 1024" version="1.1" xmlns="http://www.w3.org/2000/svg" p-id="6599" xmlns:xlink="http://www.w3.org/1999/xlink" width="32" height="32"><path d="M320 544m-192 0a192 192 0 1 0 384 0 192 192 0 1 0-384 0Z" fill="#CCD9FF" p-id="6600"></path><path d="M492.608 610.56l224 96-25.216 58.88-224-96z" fill="#3772FD" p-id="6601"></path><path d="M699.968 264.608l35.2 53.44-237.536 156.672-35.264-53.44z" fill="#FEA538" p-id="6602"></path><path d="M320 320a224 224 0 1 0 0 448 224 224 0 0 0 0-448z m0 64a160 160 0 1 1 0 320 160 160 0 0 1 0-320z" fill="#3772FD" p-id="6603"></path><path d="M800 96a128 128 0 1 0 0 256 128 128 0 0 0 0-256z m0 64a64 64 0 1 1 0 128 64 64 0 0 1 0-128z" fill="#FE9C23" p-id="6604"></path><path d="M800 640a128 128 0 1 0 0 256 128 128 0 0 0 0-256z m0 64a64 64 0 1 1 0 128 64 64 0 0 1 0-128z" fill="#3772FD" p-id="6605"></path></svg>